<svg version="1.0" xmlns="http://www.w3.org/2000/svg"
 width="300.000000pt" height="300.000000pt" viewBox="0 0 300.000000 300.000000"
 preserveAspectRatio="xMidYMid meet">
<metadata>
Created by potrace 1.10, written by Peter Selinger 2001-2011
</metadata>
<g transform="translate(0.000000,300.000000) scale(0.100000,-0.100000)"
fill="#38761d" stroke="none">
<path d="M1260 2946 c-604 -107 -1069 -556 -1197 -1156 -26 -121 -26 -459 0
-580 61 -285 195 -533 401 -741 202 -204 450 -339 746 -406 110 -25 462 -25
580 0 580 124 1014 558 1147 1147 25 110 25 462 0 580 -123 575 -562 1017
-1137 1145 -101 23 -435 29 -540 11z m453 -691 c145 -30 261 -114 314 -224 35
-74 43 -187 18 -263 -23 -71 -78 -152 -131 -193 l-44 -33 43 -25 c60 -35 124
-108 154 -175 35 -77 43 -215 18 -293 -45 -140 -140 -231 -305 -292 -52 -20
-79 -21 -467 -25 l-413 -3 0 770 0 771 373 0 c286 0 388 -4 440 -15z"/>
<path d="M1300 1804 l0 -136 138 4 c116 3 142 6 166 23 55 37 72 124 36 183
-31 51 -71 62 -215 62 l-125 0 0 -136z"/>
<path d="M1300 1220 l0 -140 135 0 c150 0 187 9 223 55 27 34 30 111 6 156
-27 53 -79 69 -231 69 l-133 0 0 -140z"/>
</g>
</svg>